<svg width="41" height="40" viewBox="0 0 41 40" fill="none" xmlns="http://www.w3.org/2000/svg">
<path d="M27.0937 39.25C25.7938 39.25 24.7437 38.7 23.9437 37.6C23.1437 36.5 23.0437 35.25 23.6438 33.85C25.0438 30.35 25.9438 27.4 26.3438 25C26.6438 22.6 26.6938 20.5 26.4938 18.7C26.1938 17 25.8938 15.35 25.5938 13.75C25.1938 12.15 24.9938 10.35 24.9938 8.35C24.9938 5.95 25.7438 4 27.2438 2.50001C28.7438 1.10001 30.5438 0.400007 32.6438 0.400007C35.2438 0.400007 37.2938 1.45001 38.7938 3.55C40.1938 5.75 40.8938 8.70001 40.8938 12.4C40.8938 14.7 40.4438 17.35 39.5438 20.35C38.6438 23.35 37.4938 26.3 36.0938 29.2C34.5938 32.1 33.0938 34.5 31.5938 36.4C29.9938 38.3 28.4938 39.25 27.0937 39.25ZM5.19375 39.25C3.99375 39.25 2.99375 38.7 2.19375 37.6C1.29375 36.5 1.14375 35.25 1.74375 33.85C3.24375 30.35 4.14375 27.4 4.44375 25C4.74375 22.6 4.79375 20.5 4.59375 18.7C4.39375 17 4.09375 15.35 3.69375 13.75C3.29375 12.15 3.09375 10.35 3.09375 8.35C3.09375 5.95 3.84375 4 5.34375 2.5C6.84375 1.1 8.69375 0.400005 10.8938 0.400005C13.3938 0.400005 15.3938 1.45 16.8938 3.55C18.3938 5.75 19.1438 8.7 19.1438 12.4C19.1438 14.7 18.6938 17.35 17.7938 20.35C16.7938 23.35 15.5938 26.3 14.1938 29.2C12.7938 32.1 11.2937 34.5 9.69375 36.4C8.09375 38.3 6.59375 39.25 5.19375 39.25Z" fill="#C89B6E"/>
</svg>
