<svg width="498" height="494" viewBox="0 0 498 494" fill="none" xmlns="http://www.w3.org/2000/svg">
<path d="M334.376 484.614C318.333 484.614 305.374 477.823 295.5 464.242C285.627 450.66 284.393 435.227 291.799 417.941C309.077 374.727 320.185 338.304 325.121 308.672C328.824 279.039 329.441 253.111 326.972 230.887C323.27 209.897 319.567 189.525 315.865 169.77C310.928 150.015 308.46 127.79 308.46 103.097C308.46 73.4644 317.716 49.388 336.228 30.8679C354.741 13.5823 376.955 4.93948 402.872 4.93948C434.96 4.93948 460.26 17.9037 478.772 43.8319C496.05 70.995 504.689 107.418 504.689 153.101C504.689 181.499 499.136 214.218 488.028 251.259C476.921 288.299 462.728 324.723 445.45 360.528C426.938 396.334 408.426 425.967 389.914 449.426C370.167 472.885 351.655 484.614 334.376 484.614ZM64.0985 484.614C49.2887 484.614 36.9473 477.823 27.0741 464.242C15.9668 450.66 14.1156 435.227 21.5204 417.941C40.0326 374.727 51.14 338.304 54.8424 308.672C58.5448 279.039 59.1619 253.111 56.6936 230.887C54.2253 209.897 50.5229 189.525 45.5863 169.77C40.6497 150.015 38.1814 127.79 38.1814 103.097C38.1814 73.4644 47.4375 49.388 65.9497 30.8678C84.4619 13.5822 107.294 4.93945 134.445 4.93945C165.299 4.93945 189.982 17.9036 208.494 43.8319C227.006 70.995 236.263 107.418 236.263 153.101C236.263 181.499 230.709 214.218 219.602 251.259C207.26 288.299 192.45 324.723 175.172 360.528C157.894 396.334 139.381 425.967 119.635 449.426C99.8887 472.885 81.3765 484.614 64.0985 484.614Z" fill="white"/>
</svg>
